<?xml version="1.0" encoding="UTF-8" standalone="no"?>
<svg
   xmlns:dc="http://purl.org/dc/elements/1.1/"
   xmlns:cc="http://creativecommons.org/ns#"
   xmlns:rdf="http://www.w3.org/1999/02/22-rdf-syntax-ns#"
   xmlns:svg="http://www.w3.org/2000/svg"
   xmlns="http://www.w3.org/2000/svg"
   xmlns:sodipodi="http://sodipodi.sourceforge.net/DTD/sodipodi-0.dtd"
   xmlns:inkscape="http://www.inkscape.org/namespaces/inkscape"
   viewBox="0 0 25.200001 21"
   version="1.1"
   id="svg3729"
   sodipodi:docname="default_folder.svg"
   width="50.400002"
   height="21"
   inkscape:version="0.92.4 (5da689c313, 2019-01-14)">
  <metadata
     id="metadata3735">
    <rdf:RDF>
      <cc:Work
         rdf:about="">
        <dc:format>image/svg+xml</dc:format>
        <dc:type
           rdf:resource="http://purl.org/dc/dcmitype/StillImage" />
      </cc:Work>
    </rdf:RDF>
  </metadata>
  <defs
     id="defs3733" />
  <sodipodi:namedview
     pagecolor="#ffffff"
     bordercolor="#666666"
     borderopacity="1"
     objecttolerance="10"
     gridtolerance="10"
     guidetolerance="10"
     inkscape:pageopacity="0"
     inkscape:pageshadow="2"
     inkscape:window-width="1858"
     inkscape:window-height="1057"
     id="namedview3731"
     showgrid="false"
     inkscape:zoom="16"
     inkscape:cx="-6.2615623"
     inkscape:cy="10.36601"
     inkscape:window-x="54"
     inkscape:window-y="-8"
     inkscape:window-maximized="1"
     inkscape:current-layer="svg3729" />
  <title
     id="title3725">default_folder</title>
  <path
     d="M 10.499599,0.00429336 H 1.1995989 L -0.90040118,4.2042934 H -12.600401 V 21.004293 h 25.2 V 0.00429336 Z m 0,4.20000004 H 2.2995989 l 1.1,-2.1 h 7.1000001 z"
     style="fill:#c09553"
     id="path3727"
     inkscape:connector-curvature="0" />
  <path
     d="m 35.699599,0.00429346 h -9.3 l -2.1,4.20000004 h -11.7 V 21.004294 h 25.2 V 0.00429346 Z m 0,4.20000004 h -8.2 l 1.1,-2.1 h 7.1 z"
     style="fill:#c09553"
     id="path3727-8"
     inkscape:connector-curvature="0" />
  <path
     style="fill:#666666;stroke-width:0.0625"
     d="M 0.02593768,12.60899 V 4.2339904 H 5.8698097 11.713681 l 1.04632,-2.09375 1.046319,-2.09375 h 5.672308 5.67231 V 10.51524 20.98399 H 12.588438 0.02593768 Z M 23.150938,3.1709827 V 2.107975 l -3.599178,0.016133 -3.599177,0.016133 -0.524721,1 c -0.288597,0.55 -0.525217,1.0210937 -0.525822,1.046875 -6.07e-4,0.025781 1.855148,0.046875 4.123898,0.046875 h 4.125 z"
     id="path3752"
     inkscape:connector-curvature="0"
     transform="translate(-12.6)" />
  <path
     style="fill:#e6e6e6;stroke-width:0.0625"
     d="M 25.213438,12.60899 V 4.2339904 h 5.843872 5.843871 l 1.04632,-2.09375 1.046318,-2.09375 h 5.703559 5.70356 V 10.51524 20.98399 h -12.59375 -12.59375 z m 23.125,-9.4374996 v -1.0625 H 44.753482 41.168526 L 40.628482,3.139497 c -0.297024,0.5667786 -0.540044,1.0449036 -0.540044,1.0625 0,0.017596 1.85625,0.031993 4.125,0.031993 h 4.125 z"
     id="path3754"
     inkscape:connector-curvature="0"
     transform="translate(-12.6)" />
  <path
     style="fill:#666666;stroke-width:0.0625"
     d="M 0.02593768,12.60899 V 4.2339904 H 5.8857467 11.745556 l 1.046319,-2.09375 1.046319,-2.09375 h 5.656372 5.656372 V 10.51524 20.98399 H 12.588438 0.02593768 Z M 23.150938,3.1709827 V 2.107975 l -3.609375,0.016133 -3.609375,0.016133 -0.479477,0.9197111 c -0.263712,0.505841 -0.497638,0.9769348 -0.519836,1.0468749 -0.04031,0.1270094 -0.03534,0.127164 4.088851,0.127164 h 4.129212 z"
     id="path3756"
     inkscape:connector-curvature="0"
     transform="translate(-12.6)" />
</svg>
